<svg xmlns="http://www.w3.org/2000/svg" xmlns:xlink="http://www.w3.org/1999/xlink" viewBox="0 0 528 537"><defs><style>.cls-1,.cls-4{fill:none;}.cls-2{fill:#fff;}.cls-3{clip-path:url(#clip-path);}.cls-4{stroke:#000;stroke-miterlimit:10;stroke-width:16px;}</style><clipPath id="clip-path" transform="translate(8 8)"><rect class="cls-1" x="-8" width="512" height="521"/></clipPath></defs><title>flo</title><g id="Layer_2" data-name="Layer 2"><rect class="cls-2" x="8.33" y="13.33" width="512" height="512"/></g><g id="Layer_1" data-name="Layer 1"><g class="cls-3"><path d="M491.11,154c2.8-27.59-15.09-60.73-29.21-88.55-5.25-10.35-15.25-22.21-26.54-15.69a17.1,17.1,0,0,0-8,11.32L410,143.4l-87.82,46.28a527.06,527.06,0,0,0-64.53-21.59c-8.3-2.18-19-3.47-22.64,6a14.77,14.77,0,0,0,1.93,13.8q23.25,32.74,46.49,65.51c4.51,6.36,9.07,12.81,11.8,20.11,4.35,11.66,3.68,24.54,6.07,36.75a75.5,75.5,0,0,0,30.48,46.56c-1.07,1.68-2.13,3.37-3.21,5.05-2.16,3.68-4.4,7.31-6.36,11s-3.88,7.36-5.7,10.91c-.87,1.8-1.68,3.59-2.5,5.32s-1.6,3.44-2.3,5.13l-2.09,4.9c-.67,1.58-1.24,3.15-1.83,4.63L306.11,408l-1.37,3.89c-.87,2.44-1.6,4.57-2.13,6.35-1.12,3.55-1.75,5.57-1.75,5.57l2-5.48c.61-1.75,1.44-3.85,2.41-6.24.48-1.2,1-2.47,1.54-3.81s1.19-2.73,1.83-4.18,1.28-3,2-4.52l2.29-4.78c.77-1.64,1.63-3.3,2.52-5s1.77-3.43,2.71-5.17c2-3.44,3.92-7,6.13-10.56s4.48-7.08,6.78-10.61c1.13-1.62,2.26-3.24,3.39-4.84a71,71,0,0,0,6.86,3.87c1.35.67,2.73,1.27,4.12,1.85-.25.57-.52,1.12-.76,1.7-1.9,4.23-3.83,8.53-5.77,12.82L333.84,392c-1.77,4.28-3.08,8.65-4.47,12.84-.68,2.09-1.36,4.15-2,6.17-.33,1-.65,2-1,3s-.54,2-.81,2.95c-1.06,3.9-2.05,7.59-3,11-.44,1.71-.91,3.33-1.29,4.88s-.65,3.06-.95,4.46c-.59,2.8-1.11,5.24-1.54,7.25l-1.34,6.31,1.59-6.25c.51-2,1.13-4.4,1.83-7.17.36-1.38.73-2.86,1.13-4.41s1-3.14,1.49-4.81c1.05-3.36,2.18-7,3.39-10.83.3-.95.58-1.93.93-2.91l1.09-2.93,2.26-6.06c1.55-4.1,3-8.38,4.95-12.57s3.7-8.5,5.56-12.78c2.09-4.18,4.17-8.36,6.23-12.47.31-.66.64-1.31,1-2a73.37,73.37,0,0,0,12.28,3.18c-.66,2.48-1.3,5-1.8,7.58-1,4.56-2,9.19-3,13.83-.74,4.68-1.47,9.36-2.2,14s-1.18,9.17-1.65,13.58q-.33,3.32-.65,6.5c-.11,1.06-.22,2.11-.32,3.15s-.11,2.07-.16,3.09c-.18,4.05-.36,7.89-.51,11.43-.07,1.77-.18,3.47-.21,5.08s0,3.15.05,4.59c0,2.88.06,5.39.09,7.45.05,4.13.07,6.49.07,6.49s.07-2.36.19-6.49c.06-2.06.13-4.56.21-7.44,0-1.43.08-3,.13-4.57s.27-3.3.41-5.06c.3-3.52.62-7.33,1-11.37.09-1,.15-2,.28-3.06s.29-2.07.44-3.12c.3-2.1.6-4.25.91-6.43.64-4.37,1.16-8.9,2.18-13.42s1.82-9.15,2.74-13.76c1.17-4.54,2.34-9.09,3.5-13.57.62-2.7,1.41-5.31,2.23-7.89a76.37,76.37,0,0,0,12.56.45c-.32,2.23-.65,4.51-.79,6.84-.27,3-.54,6.14-.8,9.23s-.21,6.21-.31,9.26,0,6.05,0,9c0,1.45.06,2.88.09,4.27s.06,2.76.19,4.09c.2,2.65.39,5.15.56,7.46.09,1.16.16,2.27.26,3.32s.27,2,.39,3c.24,1.87.46,3.49.63,4.83l.55,4.2s-.11-1.54-.29-4.23c-.09-1.34-.2-3-.33-4.85-.07-.93-.13-1.93-.21-3s0-2.16-.06-3.31c0-2.31-.06-4.81-.1-7.45-.05-1.32,0-2.67.07-4.06s.11-2.8.17-4.24c.13-2.87.17-5.84.52-8.85s.57-6.05.86-9.1c.45-3,.9-6.06,1.35-9,.32-2.61.87-5.15,1.38-7.62a74.54,74.54,0,0,0,18.7-4.38,5.55,5.55,0,0,1,7.51,4.35,114,114,0,0,0,41.76,72.19c19.63,15.43,45.93,26.2,54.23,49.74l3.45-325.76c-1.22-.53-2.6-.06-3.51-.73-6.81-5.08-13.47-4.7-12.83-11M349.68,234a14.46,14.46,0,0,0-3.35,8.26,4,4,0,0,1,.77-.09,3.63,3.63,0,0,1,0,7.26h0a23.42,23.42,0,0,0,.85,2.43c3.66,8.56,12.12,13.14,18.91,10.24s9.33-12.18,5.67-20.74a18.78,18.78,0,0,0-9.44-10,24.64,24.64,0,0,1,8.62,2.58,30.16,30.16,0,0,1,13.84,16l-10.13,7.6c-6.77,5.09-14.71,10.46-23,8.72-7-1.48-12.35-8.43-12.49-15.63-.14-6.75,3.93-13.24,9.77-16.62m17.78,25.94s.11-.15.31-.39.55-.56.83-1c.16-.21.32-.44.5-.66s.32-.51.51-.76c.37-.51.66-1.12,1-1.7s.58-1.21.77-1.82c.09-.3.25-.58.31-.86s.15-.55.23-.8c.17-.5.2-.93.3-1.24s.13-.48.13-.48l.11.48a6.08,6.08,0,0,1,.15,1.32c0,.28,0,.58,0,.9a5,5,0,0,1-.17,1,4.89,4.89,0,0,1-.29,1l-.42,1-.58.95a5.46,5.46,0,0,1-.65.85,6,6,0,0,1-.7.72c-.24.22-.49.4-.71.57a5,5,0,0,1-1.13.65l-.46.21M468,200.37c-2.18,8.18-10.55,12.86-18.13,16.62l-11.35,5.63a30.13,30.13,0,0,1-8-19.54,24.53,24.53,0,0,1,4.19-14,17.15,17.15,0,0,0-.47,6.32,3.56,3.56,0,0,1,1.59-.39,3.62,3.62,0,0,1,.41,7.22c.08.16.14.32.23.48,4.32,8.25,13.12,12.15,19.66,8.73s8.34-12.88,4-21.13c-2.86-5.47-7.7-9-12.55-9.79a18.41,18.41,0,0,1,12.09,1.62c6.37,3.37,10.19,11.23,8.35,18.19m-12.76,9.12s.11-.15.31-.39a11.77,11.77,0,0,0,.83-1c.16-.21.32-.43.5-.65s.32-.51.51-.76c.37-.51.66-1.13,1-1.7s.58-1.22.77-1.82c.09-.3.25-.58.31-.87s.15-.55.23-.8c.17-.49.2-.93.3-1.23s.13-.49.13-.49.05.17.11.49a5.45,5.45,0,0,1,.15,1.32c0,.27,0,.57,0,.89a4.47,4.47,0,0,1-.17,1,5,5,0,0,1-.29,1l-.42,1-.58,1a5,5,0,0,1-.65.85,7,7,0,0,1-.7.73c-.24.21-.49.4-.71.57a5.4,5.4,0,0,1-1.13.65l-.46.2" transform="translate(8 8)"/></g><rect class="cls-4" x="8" y="8" width="512" height="521"/></g></svg>